<svg xmlns="http://www.w3.org/2000/svg" viewBox="0 0 385.3 419.7"><defs><style>.cls-1{fill:#fff;}</style></defs><g id="Layer_2" data-name="Layer 2"><g id="Layer_1-2" data-name="Layer 1"><polygon class="cls-1" points="192.65 419.7 123.08 379.54 128.99 369.31 192.65 406.06 254.9 370.13 260.8 380.36 192.65 419.7"/><path class="cls-1" d="M274.13,372.66l-82.4-208.45L110.57,372.32,10.91,314.78V104.93L192.65,0,374.39,104.93V314.78ZM191.65,131.88l88.44,223.7L362.57,308V111.75L192.65,13.64,22.73,111.75V308l81.83,47.25Z"/><path class="cls-1" d="M295.84,319.2,206,102H176.46L89.25,319.08l-42.9-24.76V125.39l146.3-84.47L339,125.39V294.32Zm-127.36-229H213.9l87.71,212,25.52-14.73V132.21L192.65,54.57,58.17,132.21V287.5L83.36,302Z"/><circle class="cls-1" cx="52.26" cy="128.8" r="16.82"/><circle class="cls-1" cx="333.04" cy="291.69" r="16.82"/><circle class="cls-1" cx="368.48" cy="111.98" r="16.82"/><circle class="cls-1" cx="16.82" cy="310.72" r="16.82"/></g></g></svg>