<svg xmlns="http://www.w3.org/2000/svg" viewBox="0 0 425.65 458.32"><defs><style>.cls-1{fill:#fff;}</style></defs><g id="Layer_2" data-name="Layer 2"><g id="Layer_1-2" data-name="Layer 1"><rect class="cls-1" x="0.33" y="198.54" width="271.64" height="11.5" transform="translate(-101.95 264.1) rotate(-70.42)"/><polygon class="cls-1" points="274.03 334.05 257.96 285.35 167.1 285.35 151.53 334 140.58 330.5 158.71 273.86 266.27 273.86 284.95 330.45 274.03 334.05"/><rect class="cls-1" x="282.86" y="68.26" width="11.5" height="272.05" transform="translate(-52.18 109.98) rotate(-19.82)"/><rect class="cls-1" x="224.31" y="124.74" width="11.5" height="114.62" transform="translate(-45.18 80.5) rotate(-18.1)"/><rect class="cls-1" x="137.25" y="176.3" width="114.56" height="11.5" transform="translate(-38.77 310.7) rotate(-71.98)"/><circle class="cls-1" cx="181.67" cy="76.32" r="14.5"/><circle class="cls-1" cx="90.63" cy="332.25" r="14.5"/><circle class="cls-1" cx="146.05" cy="332.25" r="14.5"/><circle class="cls-1" cx="279.49" cy="332.25" r="14.5"/><circle class="cls-1" cx="334.74" cy="332.25" r="14.5"/><circle class="cls-1" cx="212.34" cy="127.58" r="14.5"/><circle class="cls-1" cx="176.81" cy="236.52" r="14.5"/><circle class="cls-1" cx="247.87" cy="236.52" r="14.5"/><circle class="cls-1" cx="242.48" cy="76.32" r="14.5"/><path class="cls-1" d="M411.14,318.53V114.58L212.68,0,32.78,103.87a20,20,0,1,0-18.55,34.45V343.74L212.68,458.32,393.79,353.76a20,20,0,1,0,17.35-35.23ZM11.52,119.2A8.46,8.46,0,1,1,20,127.66,8.46,8.46,0,0,1,11.52,119.2ZM385.7,337.73a19.82,19.82,0,0,0,1.19,6.74L212.68,445,25.72,337.1V138.32a19.94,19.94,0,0,0,13.39-24.83L212.68,13.28l187,107.94V318.68A20,20,0,0,0,385.7,337.73Zm20,8.45a8.46,8.46,0,1,1,8.46-8.45A8.45,8.45,0,0,1,405.67,346.18Z"/></g></g></svg>