<svg id="svg" version="1.1" xmlns="http://www.w3.org/2000/svg" xmlns:xlink="http://www.w3.org/1999/xlink" width="400" height="400" viewBox="0, 0, 400,400"><g id="svgg"><path id="path0" d="M181.165 167.986 L 163.131 178.411 163.125 199.590 C 163.121 211.848,163.193 220.690,163.295 220.580 C 163.477 220.384,168.397 211.860,176.181 198.257 C 178.617 194.001,180.663 190.515,180.728 190.511 C 180.792 190.508,182.021 192.911,183.458 195.852 C 193.445 216.295,199.300 228.324,199.300 228.397 C 199.300 228.444,194.017 228.506,187.559 228.534 L 175.818 228.586 187.877 235.547 C 194.509 239.376,200.049 242.464,200.188 242.411 C 200.588 242.258,223.766 228.865,223.978 228.665 C 224.090 228.559,221.065 228.484,216.582 228.482 L 208.996 228.477 206.635 223.834 C 205.336 221.280,200.044 210.846,194.875 200.648 L 185.475 182.105 185.953 181.257 C 186.216 180.791,189.372 175.308,192.966 169.072 C 196.560 162.837,199.500 157.687,199.500 157.628 C 199.500 157.400,198.667 157.870,181.165 167.986 M200.500 157.580 C 200.500 157.631,204.559 164.722,209.521 173.339 C 217.437 187.085,234.900 217.483,236.235 219.840 C 236.499 220.307,236.753 220.690,236.799 220.690 C 236.844 220.690,236.880 211.177,236.879 199.550 L 236.876 178.411 218.867 168.016 C 200.645 157.498,200.500 157.416,200.500 157.580 M195.627 174.402 L 191.299 182.111 202.046 202.792 L 212.794 223.473 222.653 223.481 L 232.513 223.488 231.855 222.339 C 231.493 221.707,224.240 209.000,215.738 194.103 C 207.236 179.205,200.207 166.944,200.118 166.855 C 200.029 166.766,198.008 170.162,195.627 174.402 M178.752 204.548 C 175.280 210.705,168.498 222.901,168.392 223.179 C 168.286 223.456,169.438 223.488,179.312 223.488 C 190.084 223.488,190.349 223.479,190.252 223.106 C 190.078 222.443,180.417 202.113,180.272 202.106 C 180.195 202.102,179.512 203.201,178.752 204.548 " stroke="none" fill="#14ccfc" fill-rule="evenodd"></path><path id="path1" d="" stroke="none" fill="#18ccfc" fill-rule="evenodd"></path><path id="path2" d="" stroke="none" fill="#18ccfc" fill-rule="evenodd"></path><path id="path3" d="" stroke="none" fill="#18ccfc" fill-rule="evenodd"></path><path id="path4" d="" stroke="none" fill="#18ccfc" fill-rule="evenodd"></path></g></svg>