<svg xmlns="http://www.w3.org/2000/svg" viewBox="0 0 813.29 565.76"><defs><style>.cls-1{fill:#fff;}</style></defs><g id="Layer_2" data-name="Layer 2"><g id="Layer_1-2" data-name="Layer 1"><path class="cls-1" d="M0,563.39l31.06-91.06H60l31.93,91.06H73.72l-27.07-79L53,487.17H37.42l6.49-2.74-26.2,79Zm21.7-24.2,5.62-15H64.24l5.49,15Z"/><path class="cls-1" d="M142.83,563.39V471.7h17.71v91.69ZM155.3,533V518.61h23.2a16.94,16.94,0,0,0,8.42-2,14.13,14.13,0,0,0,5.55-5.61,16.78,16.78,0,0,0,2-8.24,17,17,0,0,0-2-8.35,14.16,14.16,0,0,0-5.55-5.62,16.94,16.94,0,0,0-8.42-2H155.3V471.7h21.33a50.74,50.74,0,0,1,19,3.25,26,26,0,0,1,12.41,9.85q4.37,6.61,4.37,16.59v2q0,10.1-4.43,16.59a26.79,26.79,0,0,1-12.41,9.73,50.28,50.28,0,0,1-19,3.24Zm43.16,30.44-27.94-39.67h19.83l28.82,39.67Z"/><path class="cls-1" d="M311.22,565.76a50.77,50.77,0,0,1-20.64-3.93,43.58,43.58,0,0,1-15-10.61,45.14,45.14,0,0,1-9.11-15.09,51.1,51.1,0,0,1-3.05-17.52v-2.75a49.05,49.05,0,0,1,3-16.84,46.36,46.36,0,0,1,8.8-14.84,42.16,42.16,0,0,1,14.34-10.54,46.55,46.55,0,0,1,19.65-3.93,48.61,48.61,0,0,1,21.2,4.42,38,38,0,0,1,14.85,12.35,37.45,37.45,0,0,1,6.61,18.4H334.05a19.89,19.89,0,0,0-4.37-10,22.92,22.92,0,0,0-8.79-6.42,29.53,29.53,0,0,0-11.66-2.25,28.66,28.66,0,0,0-11.54,2.25,24.73,24.73,0,0,0-8.8,6.36,28.56,28.56,0,0,0-5.55,9.85,39.69,39.69,0,0,0-1.93,12.73A40.64,40.64,0,0,0,283.53,531a28.82,28.82,0,0,0,6,10.17,25.09,25.09,0,0,0,9.35,6.36,33.1,33.1,0,0,0,12.35,2.19,32.38,32.38,0,0,0,16-3.81,23.63,23.63,0,0,0,10-9.92l-3.12,14.35V526.84h16.34v20.21a39.41,39.41,0,0,1-16,13.78A52.31,52.31,0,0,1,311.22,565.76Zm-2.87-35.43V517.11H358v13.22Z"/><path class="cls-1" d="M410,563.39V472.33h17.33v91.06Zm14.84-76.1v-15h40.29v15Zm0,37.3v-15h38.05v15Zm0,38.8v-15h41.29v15Z"/><path class="cls-1" d="M521.78,563.39V472.33h29.07l38.29,76.34h4.12l-2.5,2.24V472.33h16.72v91.06H578.29L540,487.05h-4.24l2.5-2.25v78.59Z"/><path class="cls-1" d="M667.6,563.39V472.33h17.71v91.06Z"/><path class="cls-1" d="M776.5,565.76q-12.11,0-20.4-3.87a29.24,29.24,0,0,1-12.66-10.67,27.87,27.87,0,0,1-4.37-15.4h17.34a13.88,13.88,0,0,0,2,7,14.25,14.25,0,0,0,6.42,5.55q4.42,2.12,11.67,2.12a27.75,27.75,0,0,0,10.85-1.87,14.61,14.61,0,0,0,6.48-4.93,11.83,11.83,0,0,0,2.13-6.92,9.14,9.14,0,0,0-4.12-7.8q-4.12-2.92-12.72-3.68l-8-.62q-13.1-1.12-20.89-8.17t-7.8-18.65a25.84,25.84,0,0,1,15.66-24.76,45.87,45.87,0,0,1,35.24.18,27.57,27.57,0,0,1,11.6,10.17,28.39,28.39,0,0,1,4.11,15.41H791.71A13.74,13.74,0,0,0,789.9,492a13.24,13.24,0,0,0-5.36-5.11,18.77,18.77,0,0,0-9-1.94,19.47,19.47,0,0,0-8.73,1.75,12.19,12.19,0,0,0-5.24,4.74,12.62,12.62,0,0,0-1.75,6.49,10.26,10.26,0,0,0,3.12,7.42q3.12,3.18,9.85,3.68l8,.75a50.29,50.29,0,0,1,17.09,4.11A27.78,27.78,0,0,1,809.24,523a23.41,23.41,0,0,1,4,13.85A26.06,26.06,0,0,1,808.8,552,29.09,29.09,0,0,1,796,562.14,48.57,48.57,0,0,1,776.5,565.76Z"/><polygon class="cls-1" points="496.46 290.67 406.65 238.82 316.84 290.67 300.18 261.83 406.65 200.36 513.11 261.83 496.46 290.67"/><polygon class="cls-1" points="454.83 352.64 454.83 391.1 406.65 418.93 358.48 391.11 358.48 352.64 406.65 380.47 454.83 352.64"/><path class="cls-1" d="M488.13,371.88V162.42l-81.48-47-81.49,47V371.88l-99.91-57.69V104.73L406.65,0l181.4,104.73V314.19Zm-81.48-295,114.79,66.28v171L554.74,295V124L406.65,38.46,258.55,124V295l33.31,19.23v-171Z"/></g></g></svg>