<svg xmlns="http://www.w3.org/2000/svg" viewBox="0 0 369 423.97"><defs><style>.cls-1{fill:#15cdfc;}</style></defs><g id="Layer_2" data-name="Layer 2"><g id="Layer_1-2" data-name="Layer 1"><path class="cls-1" d="M184.59,46.07l-42.84,76.26S209,251.63,249.14,328.58H346Z"/><path class="cls-1" d="M230.64,74.24c35.88,62.39,55,95.65,55.78,97,1.16,1.81,20.24,35.08,58.93,102.74L369,315V104.53L187.94,0C193.71,10.16,207.78,34.62,230.64,74.24Z"/><path class="cls-1" d="M262.41,354.58H228.86c-.19,0-2-3.46-5.37-10.36-1.19-2.1-20.86-40.76-57.26-112.54-33.23-65.56-50.62-99.89-53.58-105.75-.16-.31-.82-1.49-2-3.54,37-64.11,55.43-96.13,56.95-98.85l12-20.85c.58-1,1.09-1.83,1.57-2.62L0,104.7V315.05c28.11-48.95,42.22-73.44,43.37-75.28l43-74.8c1-1.8,1.54-2.7,1.72-2.7l41.86,85.4c1.76,3.52,18.66,38.2,52.11,106.91H64.15L184.33,424l120.19-69.39Z"/><path class="cls-1" d="M26.45,328.58H136l-50.3-106Z"/></g></g></svg>