<svg xmlns="http://www.w3.org/2000/svg" viewBox="0 0 717.29 556.62"><defs><style>.cls-1{fill:#fff;}</style></defs><g id="Layer_2" data-name="Layer 2"><g id="Layer_1-2" data-name="Layer 1"><path class="cls-1" d="M58,537.16H21.34l-7,17.91H0l33.06-82.28h12.7l34,82.28H65.15ZM26,525.07H53.33L39.57,490.38Z"/><path class="cls-1" d="M156.26,524.62h-15.6v30.45H127.15V472.79h32c15.86,0,27.65,10.85,27.65,26a25,25,0,0,1-16.73,23.9l19,32.35H174ZM140.66,512h17.73c9,0,14.7-5.53,14.7-13.27s-5.75-13.27-14.7-13.27H140.66Z"/><path class="cls-1" d="M317.1,513.29c-.33,25.22-17.36,43.33-41.53,43.33S233.46,538.56,233.46,514s17.73-42.64,41.85-42.64c20.06,0,36.86,12.63,40.57,30.54H302c-3.53-10.58-14-17.47-26.39-17.47-16.63,0-28.38,12.2-28.38,29.57s11.43,29.59,28.38,29.59c13.14,0,23.81-7.42,26.89-18.6H273.13V513.28Z"/><rect class="cls-1" x="367.78" y="472.79" width="49.08" height="12.64"/><rect class="cls-1" x="367.78" y="506.92" width="49.08" height="12.37"/><rect class="cls-1" x="367.78" y="542.31" width="49.08" height="12.76"/><path class="cls-1" d="M535.72,472.79v82.28H524.39l-42.75-58.76v58.76H468.41V472.79h12.2l41.88,57.78V472.79Z"/><path class="cls-1" d="M592,472.79h13.51v82.28H592Z"/><path class="cls-1" d="M656.31,529.16H670c0,9.19,7.57,14.28,17.22,14.28,8.76,0,16.24-4.6,16.24-12.17,0-8.18-8.81-10.25-18.73-12.58-12.59-3.06-27-6.54-27-23.52,0-14.84,11.26-23.61,28.79-23.61,17.85,0,28.42,9.72,28.42,25.24H701.56c0-8.2-6.78-12.65-15.37-12.65-8.2,0-15,3.76-15,10.45,0,7.6,8.45,9.67,18.22,12,12.8,3.17,27.86,6.84,27.86,24.52,0,16.46-13.28,25.21-29.94,25.21C668.89,556.33,656.31,546,656.31,529.16Z"/><polygon class="cls-1" points="359.43 419.7 289.86 379.54 295.77 369.31 359.43 406.06 421.68 370.13 427.59 380.36 359.43 419.7"/><path class="cls-1" d="M440.92,372.66,358.51,164.21,277.35,372.32,177.7,314.78V104.93L359.43,0,541.17,104.93V314.78ZM358.44,131.88l88.43,223.7L529.36,308V111.75L359.43,13.64,189.51,111.75V308l81.84,47.25Z"/><path class="cls-1" d="M462.62,319.2,372.79,102H343.24L256,319.08l-42.89-24.76V125.39L359.43,40.92l146.3,84.47V294.32Zm-127.36-229h45.42l87.71,212,25.53-14.73V132.21L359.43,54.57,225,132.21V287.5L250.15,302Z"/><circle class="cls-1" cx="219.04" cy="128.8" r="16.82"/><circle class="cls-1" cx="499.82" cy="291.69" r="16.82"/><circle class="cls-1" cx="535.26" cy="111.98" r="16.82"/><circle class="cls-1" cx="183.6" cy="310.72" r="16.82"/></g></g></svg>